<svg xmlns="http://www.w3.org/2000/svg" viewBox="0 0 120 120" width="120" height="120">
  <defs>
    <linearGradient id="swgold" x1="0" y1="0" x2="0" y2="1">
      <stop offset="0" stop-color="#e8ca77"/>
      <stop offset="1" stop-color="#9a7526"/>
    </linearGradient>
    <linearGradient id="swhair" x1="0" y1="0" x2="0" y2="1">
      <stop offset="0" stop-color="#3b2f2a"/>
      <stop offset="1" stop-color="#191311"/>
    </linearGradient>
  </defs>
  <path d="M48,36 C54,31 66,31 72,36" stroke="url(#swgold)" stroke-width="5" fill="none"
        stroke-linecap="round"/>
  <path d="M16,34 C11,31 8,30 5,31" stroke="url(#swgold)" stroke-width="5" fill="none"
        stroke-linecap="round"/>
  <path d="M104,34 C109,31 112,30 115,31" stroke="url(#swgold)" stroke-width="5" fill="none"
        stroke-linecap="round"/>
  <circle cx="32" cy="40" r="18" fill="#cfe0f0" fill-opacity="0.2"/>
  <circle cx="88" cy="40" r="18" fill="#cfe0f0" fill-opacity="0.2"/>
  <circle cx="32" cy="40" r="18" fill="none" stroke="url(#swgold)" stroke-width="5"/>
  <circle cx="88" cy="40" r="18" fill="none" stroke="url(#swgold)" stroke-width="5"/>
  <path d="M60,68 C54,68 49,71 44,76 C34,84 22,86 12,82 C13,94 22,105 34,107
           C46,109 56,102 60,94 C64,102 74,109 86,107 C98,105 107,94 108,82
           C98,86 86,84 76,76 C71,71 66,68 60,68 Z" fill="url(#swhair)"/>
</svg>
