<svg xmlns="http://www.w3.org/2000/svg" viewBox="0 0 120 120" width="120" height="120">
  <path d="M34,30 C16,26 6,46 8,68 C10,86 22,98 32,94 C40,90 40,66 38,52 C36,38 38,32 34,30 Z"
        fill="#a86f38"/>
  <path d="M86,30 C104,26 114,46 112,68 C110,86 98,98 88,94 C80,90 80,66 82,52
           C84,38 82,32 86,30 Z" fill="#a86f38"/>
  <ellipse cx="60" cy="62" rx="38" ry="40" fill="#c58a4e"/>
  <ellipse cx="60" cy="82" rx="26" ry="22" fill="#dcab74"/>
  <ellipse cx="47" cy="55" rx="6" ry="7" fill="#241a16"/>
  <ellipse cx="73" cy="55" rx="6" ry="7" fill="#241a16"/>
  <ellipse cx="60" cy="76" rx="12" ry="9" fill="#241a16"/>
  <path d="M60,96 C52,110 68,110 60,96 Z" fill="#e8697f"/>
  <ellipse cx="60" cy="104" rx="9" ry="13" fill="#e8697f"/>
</svg>
